<?xml version="1.0" encoding="utf-8"?>
<!-- Generator: Adobe Illustrator 26.1.0, SVG Export Plug-In . SVG Version: 6.00 Build 0)  -->
<svg version="1.1" id="Layer_1" xmlns="http://www.w3.org/2000/svg" xmlns:xlink="http://www.w3.org/1999/xlink" x="0px" y="0px"
	 viewBox="0 0 144 144" style="enable-background:new 0 0 144 144;" xml:space="preserve">
<style type="text/css">
	.st0{fill:#2D80BE;}
	.st1{fill:#16207C;}
</style>
<ellipse transform="matrix(0.5 -0.866 0.866 0.5 -65.3604 94.8182)" class="st0" cx="49.4" cy="104" rx="1.9" ry="5.3"/>
<path class="st0" d="M36.5,54.4c0.5-0.7,1-1.4,1.3-2.1c0.2-0.5,0.7-0.8,1.2-0.8h1.2c0,0.9,0.3,1.7,0.9,2.3c1.8,1.8,5.6,1,8.4-1.8
	c2.8-2.8,3.6-6.6,1.8-8.4c-1.8-1.8-5.6-1-8.4,1.8c-1,1-1.7,2-2.1,3.1c-0.2,0.5-0.6,0.8-1.2,0.8h-1.2c-0.1-0.5-0.2-0.9-0.6-1.2
	c-1.2-0.9-3.7,0.4-5.6,2.9c-1.9,2.5-2.5,5.3-1.4,6.2C32.1,58.2,34.6,56.9,36.5,54.4z"/>
<path class="st0" d="M36.5,84.5c0.5,0.7,1,1.4,1.3,2.1c0.2,0.5,0.7,0.8,1.2,0.8h1.2c0-0.9,0.3-1.7,0.9-2.3c1.8-1.8,5.6-1,8.4,1.8
	c2.8,2.8,3.6,6.6,1.8,8.4c-1.8,1.8-5.6,1-8.4-1.8c-1-1-1.7-2-2.1-3.1c-0.2-0.5-0.6-0.8-1.2-0.8h-1.2c-0.1,0.5-0.2,0.9-0.6,1.2
	c-1.2,0.9-3.7-0.4-5.6-2.9s-2.5-5.3-1.4-6.2C32.1,80.7,34.6,82,36.5,84.5z"/>
<path class="st0" d="M34.9,69.9H36c0.5,0,1.1,0.3,1.2,0.9c0.9,3.4,3.7,5.9,7.1,5.9c4.1,0,7.4-3.7,7.4-8.2c0-4.5-3.3-8.2-7.4-8.2
	c-3.6,0-6.6,2.8-7.3,6.5c-0.1,0.6-0.6,0.9-1.2,0.9h-1c-0.6,0-1.1-0.4-1.2-0.9c-0.5-2.3-1.6-4-2.9-4c-1.7,0-3.1,2.8-3.1,6.3
	s1.4,6.3,3.1,6.3c1.4,0,2.6-1.9,3-4.5C33.8,70.3,34.4,69.9,34.9,69.9z"/>
<ellipse transform="matrix(0.866 -0.5 0.5 0.866 -11.4101 29.5493)" class="st0" cx="49.4" cy="36.1" rx="5.3" ry="1.9"/>
<path class="st0" d="M75.1,131.4c2.2-1.7,4.8-4.9,6.3-11.1c0,0-16.6,20.2-16.6-48.6c0-68.9,16.6-48.6,16.6-48.6
	c-1.6-6.2-4.1-9.4-6.3-11.1c-2.5-1.9-5.9-1.6-8.3,0.5c-10.1,8.7-12,40.2-12.3,57.6l0,0c0,0-1.9,48.6,12.3,60.9
	C69.2,133,72.6,133.2,75.1,131.4z"/>
<g>
	<path class="st1" d="M86.5,107.4L86.5,107.4c0.5-0.1,1.1-0.3,1.6-0.4c16.6-4.8,28.3-20.2,28.3-37.5c0-17.8-12-33.3-29.3-37.8
		c-1.5-0.4-3-0.7-4.4-0.9c-1.7-0.2-3.5-0.4-5.3-0.4h-1.1c-1.2,2.9-2.2,7.2-2.9,12.9c1.3-0.2,2.7-0.3,4-0.3
		c14.6,0,26.5,11.9,26.5,26.4c0,14.6-11.9,26.5-26.5,26.5c-1.5,0-3-0.1-4.5-0.4c0.5,5.1,1.2,9.4,2.1,12.9c0.8,0,1.6,0.1,2.4,0.1
		C80.5,108.5,83.6,108.1,86.5,107.4z"/>
</g>
</svg>
